<svg width="69" height="69" viewBox="0 0 69 69" fill="none" xmlns="http://www.w3.org/2000/svg">
<path d="M69 8.17579C66.4117 9.58157 63.6732 10.5077 60.8709 10.925C63.8159 8.76943 66.0306 5.34494 67.0996 1.29378C64.3153 3.3289 61.2742 4.75683 58.1066 5.51642C56.7728 3.76902 55.1686 2.37891 53.3915 1.4306C51.6145 0.482284 49.7018 -0.00443347 47.7696 3.04289e-05C39.9467 3.04289e-05 33.6159 7.79844 33.6159 17.4117C33.6104 18.7489 33.733 20.082 33.9811 21.3828C28.3715 21.0541 22.8786 19.2653 17.8537 16.131C12.8289 12.9967 8.38276 8.58576 4.79981 3.18049C3.54283 5.82929 2.87806 8.85149 2.875 11.9312C2.875 17.9687 5.39494 23.3054 9.2 26.432C6.94561 26.3651 4.73741 25.6193 2.76288 24.2578V24.4734C2.76288 32.9187 7.65037 39.9444 14.1191 41.5437C12.9027 41.949 11.6492 42.1544 10.3902 42.1546C9.49696 42.1565 8.60569 42.0482 7.72944 41.8312C9.52775 48.7491 14.7617 53.7803 20.9616 53.9241C15.9237 58.7773 9.73851 61.4004 3.37812 61.3811C2.24914 61.379 1.1212 61.295 0 61.1295C6.47045 66.2941 13.9918 69.0259 21.6689 68.9998C47.7394 68.9998 61.9821 42.4601 61.9821 19.4422C61.9821 18.6875 61.9663 17.9328 61.9376 17.1961C64.702 14.7381 67.0936 11.6835 69 8.17579Z" fill="#EAEAEA" fill-opacity="0.6"/>
</svg>
