<svg width="85" height="96" viewBox="0 0 85 96" fill="none" xmlns="http://www.w3.org/2000/svg">
<path d="M82.7232 90H78.9286V4.5C78.9286 2.01469 76.8899 0 74.375 0H10.625C8.1101 0 6.07143 2.01469 6.07143 4.5V90H2.27679C1.01943 90 0 91.0074 0 92.25V96H85V92.25C85 91.0074 83.9806 90 82.7232 90ZM24.2857 14.25C24.2857 13.0074 25.3051 12 26.5625 12H34.1518C35.4091 12 36.4286 13.0074 36.4286 14.25V21.75C36.4286 22.9926 35.4091 24 34.1518 24H26.5625C25.3051 24 24.2857 22.9926 24.2857 21.75V14.25ZM24.2857 32.25C24.2857 31.0074 25.3051 30 26.5625 30H34.1518C35.4091 30 36.4286 31.0074 36.4286 32.25V39.75C36.4286 40.9926 35.4091 42 34.1518 42H26.5625C25.3051 42 24.2857 40.9926 24.2857 39.75V32.25ZM34.1518 60H26.5625C25.3051 60 24.2857 58.9926 24.2857 57.75V50.25C24.2857 49.0074 25.3051 48 26.5625 48H34.1518C35.4091 48 36.4286 49.0074 36.4286 50.25V57.75C36.4286 58.9926 35.4091 60 34.1518 60ZM48.5714 90H36.4286V74.25C36.4286 73.0074 37.448 72 38.7054 72H46.2946C47.552 72 48.5714 73.0074 48.5714 74.25V90ZM60.7143 57.75C60.7143 58.9926 59.6949 60 58.4375 60H50.8482C49.5909 60 48.5714 58.9926 48.5714 57.75V50.25C48.5714 49.0074 49.5909 48 50.8482 48H58.4375C59.6949 48 60.7143 49.0074 60.7143 50.25V57.75ZM60.7143 39.75C60.7143 40.9926 59.6949 42 58.4375 42H50.8482C49.5909 42 48.5714 40.9926 48.5714 39.75V32.25C48.5714 31.0074 49.5909 30 50.8482 30H58.4375C59.6949 30 60.7143 31.0074 60.7143 32.25V39.75ZM60.7143 21.75C60.7143 22.9926 59.6949 24 58.4375 24H50.8482C49.5909 24 48.5714 22.9926 48.5714 21.75V14.25C48.5714 13.0074 49.5909 12 50.8482 12H58.4375C59.6949 12 60.7143 13.0074 60.7143 14.25V21.75Z" fill="black"/>
</svg>
