<svg width="110" height="96" viewBox="0 0 110 96" fill="none" xmlns="http://www.w3.org/2000/svg">
<path d="M100.833 6H9.16667C4.1059 6 0 10.0312 0 15V81C0 85.9688 4.1059 90 9.16667 90H100.833C105.894 90 110 85.9688 110 81V15C110 10.0312 105.894 6 100.833 6ZM100.833 81H57.9028C58.0747 80.1562 58.0556 81.675 58.0556 76.8C58.0556 70.8375 52.3073 66 45.2222 66C43.1597 66 41.651 67.5 36.6667 67.5C31.5295 67.5 30.2882 66 28.1111 66C21.026 66 15.2778 70.8375 15.2778 76.8C15.2778 81.675 15.2396 80.1562 15.4306 81H9.16667V27H100.833V81ZM68.75 66H90.1389C90.9792 66 91.6667 65.325 91.6667 64.5V61.5C91.6667 60.675 90.9792 60 90.1389 60H68.75C67.9097 60 67.2222 60.675 67.2222 61.5V64.5C67.2222 65.325 67.9097 66 68.75 66ZM68.75 54H90.1389C90.9792 54 91.6667 53.325 91.6667 52.5V49.5C91.6667 48.675 90.9792 48 90.1389 48H68.75C67.9097 48 67.2222 48.675 67.2222 49.5V52.5C67.2222 53.325 67.9097 54 68.75 54ZM68.75 42H90.1389C90.9792 42 91.6667 41.325 91.6667 40.5V37.5C91.6667 36.675 90.9792 36 90.1389 36H68.75C67.9097 36 67.2222 36.675 67.2222 37.5V40.5C67.2222 41.325 67.9097 42 68.75 42ZM36.6667 60C43.408 60 48.8889 54.6187 48.8889 48C48.8889 41.3813 43.408 36 36.6667 36C29.9253 36 24.4444 41.3813 24.4444 48C24.4444 54.6187 29.9253 60 36.6667 60Z" fill="black"/>
</svg>
