<svg width="54" height="96" viewBox="0 0 54 96" fill="none" xmlns="http://www.w3.org/2000/svg">
<path d="M21 59.4263V88.8056L25.1288 94.9969C26.0194 96.3319 27.9825 96.3319 28.8731 94.9969L33 88.8056V59.4263C31.0519 59.7863 29.0512 60 27 60C24.9488 60 22.9481 59.7863 21 59.4263ZM27 0C12.0881 0 0 12.0881 0 27C0 41.9119 12.0881 54 27 54C41.9119 54 54 41.9119 54 27C54 12.0881 41.9119 0 27 0ZM27 14.25C19.9688 14.25 14.25 19.9688 14.25 27C14.25 28.2412 13.2412 29.25 12 29.25C10.7588 29.25 9.75 28.2412 9.75 27C9.75 17.4881 17.49 9.75 27 9.75C28.2412 9.75 29.25 10.7588 29.25 12C29.25 13.2412 28.2412 14.25 27 14.25Z" fill="black"/>
</svg>
