<svg width="97" height="96" viewBox="0 0 97 96" fill="none" xmlns="http://www.w3.org/2000/svg">
<g clip-path="url(#clip0_568_258)">
<path d="M95.6814 82.9988L76.791 64.3069C75.9385 63.4631 74.7828 62.9944 73.5703 62.9944H70.4822C75.7112 56.3756 78.8182 48.0525 78.8182 38.9962C78.8182 17.4544 61.1782 0 39.41 0C17.6419 0 0 17.4544 0 38.9962C0 60.5381 17.64 77.9925 39.41 77.9925C48.5606 77.9925 56.9742 74.9175 63.6619 69.7425V72.7988C63.6619 73.9988 64.1356 75.1425 64.9881 75.9863L83.8785 94.6781C85.6593 96.4406 88.539 96.4406 90.3009 94.6781L95.6625 89.3719C97.4433 87.6094 97.4433 84.7613 95.6814 82.9988V82.9988ZM39.41 65.9925C24.3409 65.9925 12.1288 53.9287 12.1288 38.9962C12.1288 24.0844 24.3201 12 39.41 12C54.4791 12 66.6913 24.0637 66.6913 38.9962C66.6913 53.9081 54.5 65.9925 39.41 65.9925ZM39.4138 21C31.6879 21 25.4246 27.1969 25.4246 34.8431C25.4246 41.0231 34.5676 52.29 38.0706 56.3794C38.2349 56.5739 38.4403 56.7304 38.6724 56.8378C38.9045 56.9452 39.1576 57.0009 39.4138 57.0009C39.67 57.0009 39.9231 56.9452 40.1552 56.8378C40.3873 56.7304 40.5928 56.5739 40.7571 56.3794C44.26 52.29 53.403 41.025 53.403 34.8431C53.403 27.1969 47.1397 21 39.4138 21V21ZM39.4138 39C36.9017 39 34.867 36.9844 34.867 34.5C34.867 32.0137 36.9036 30 39.4138 30C41.9241 30 43.9607 32.0137 43.9607 34.5C43.9607 36.9844 41.9241 39 39.4138 39Z" fill="black"/>
</g>
<defs>
<clipPath id="clip0_568_258">
<rect width="97" height="96" fill="white"/>
</clipPath>
</defs>
</svg>
