<svg width="97" height="96" viewBox="0 0 97 96" fill="none" xmlns="http://www.w3.org/2000/svg">
<g clip-path="url(#clip0_568_254)">
<path d="M94.2321 67.8373L73.0133 58.8373C72.1069 58.4549 71.0995 58.3744 70.1428 58.6077C69.1861 58.841 68.3318 59.3756 67.7087 60.131L58.3118 71.4935C43.5643 64.6119 31.6959 52.8659 24.7426 38.2704L36.2234 28.9704C36.9882 28.3548 37.5295 27.5093 37.7654 26.562C38.0013 25.6148 37.9189 24.6172 37.5307 23.7204L28.4369 2.72039C28.0109 1.75366 27.2573 0.96435 26.3062 0.488575C25.3551 0.0127995 24.2661 -0.119624 23.227 0.11414L3.52383 4.61414C2.52194 4.84311 1.62806 5.40141 0.988065 6.19792C0.348073 6.99443 -0.000230794 7.98211 1.14737e-07 8.99976C1.14737e-07 57.0935 39.3873 95.9998 87.9062 95.9998C88.9348 96.0004 89.9332 95.6559 90.7384 95.0225C91.5436 94.389 92.108 93.5041 92.3395 92.5123L96.8863 73.0123C97.121 71.9788 96.9844 70.8967 96.4999 69.9522C96.0155 69.0076 95.2135 68.2598 94.2321 67.8373V67.8373Z" fill="black"/>
</g>
<defs>
<clipPath id="clip0_568_254">
<rect width="97" height="96" fill="white"/>
</clipPath>
</defs>
</svg>
