<svg width="109" height="96" viewBox="0 0 109 96" fill="none" xmlns="http://www.w3.org/2000/svg">
<path d="M87.1054 45.3187C91.9877 37.575 89.9818 36.1687 84.8913 36.1687H79.7819C79.763 36.1687 79.4981 35.9062 77.7193 37.6687C75.5998 38.7187 70.5472 38.85 70.5472 39.3C70.5472 40.1437 83.8505 38.7187 87.2189 39.3C89.0167 39.5812 86.9351 43.125 86.3863 45.3C86.2917 46.1437 86.8404 45.7312 87.1054 45.3187V45.3187ZM65.892 49.5562C78.0031 45.5625 84.3047 45.075 85.1941 44.6437C86.0267 44.1 84.3615 43.4062 80.2361 43.5562C70.4526 43.9687 54.1972 50.5125 47.574 53.6625L41.7644 36.1687H78.9682C78.4573 30.8812 50.034 31.9312 15.0253 31.9312L5.10938 77.9625C42.2753 59.7187 54.1026 53.5312 65.892 49.5562V49.5562ZM17.9207 18C65.8542 28.0687 80.3686 30.3187 80.766 33.975C87.6542 33.975 89.4519 33.975 90.6819 35.2125C94.6748 38.9062 87.9191 47.9062 87.9191 47.9062C87.0865 48.45 11.0135 77.9437 11.0135 77.9437H91.0793L103.891 18H17.9207Z" fill="black"/>
</svg>
