<svg width="93" height="96" viewBox="0 0 93 96" fill="none" xmlns="http://www.w3.org/2000/svg">
<path d="M46.5 1.5C20.8181 1.5 0 22.3181 0 48C0 73.6819 20.8181 94.5 46.5 94.5C72.1819 94.5 93 73.6819 93 48C93 22.3181 72.1819 1.5 46.5 1.5ZM61.9294 68.55C61.1981 69.2775 60.4313 70.0406 59.8088 70.665C59.2481 71.2275 58.8525 71.9212 58.6519 72.6731C58.3687 73.7344 58.14 74.8069 57.7575 75.8362L54.4969 84.6206C51.9169 85.1831 49.2469 85.5 46.5 85.5V80.3662C46.8169 78 45.0675 73.5675 42.2569 70.7569C41.1319 69.6319 40.5 68.1056 40.5 66.5137V60.5119C40.5 58.3294 39.3244 56.3231 37.4137 55.2675C34.7194 53.7769 30.8869 51.6937 28.2619 50.3719C26.1094 49.2881 24.1181 47.9081 22.3275 46.2937L22.1775 46.1587C20.897 45.0029 19.7601 43.6973 18.7913 42.27C17.0325 39.6881 14.1675 35.4413 12.3056 32.6813C16.1437 24.15 23.0606 17.2988 31.6556 13.5769L36.1575 15.8287C38.1525 16.8262 40.5 15.3769 40.5 13.1456V11.0269C41.9981 10.785 43.5225 10.6312 45.0731 10.5731L50.3794 15.8794C51.5513 17.0513 51.5513 18.9506 50.3794 20.1225L49.5 21L47.5613 22.9387C46.9763 23.5237 46.9763 24.4744 47.5613 25.0594L48.4406 25.9387C49.0256 26.5237 49.0256 27.4744 48.4406 28.0594L46.9406 29.5594C46.659 29.8405 46.2773 29.9983 45.8794 29.9981H44.1937C43.8037 29.9981 43.4287 30.15 43.1475 30.4237L41.2875 32.2331C41.0595 32.4551 40.9079 32.7439 40.8547 33.0576C40.8014 33.3714 40.8493 33.6939 40.9912 33.9788L43.9144 39.8269C44.4131 40.8244 43.6875 41.9981 42.5737 41.9981H41.5162C41.1544 41.9981 40.8056 41.8669 40.5337 41.6306L38.7937 40.1194C38.4 39.7778 37.9241 39.5446 37.4129 39.4427C36.9017 39.3407 36.3728 39.3736 35.8781 39.5381L30.0337 41.4862C29.5876 41.635 29.1995 41.9205 28.9246 42.3021C28.6496 42.6837 28.5017 43.1422 28.5019 43.6125C28.5019 44.4619 28.9819 45.2362 29.7412 45.6169L31.8187 46.6556C33.5831 47.5388 35.5294 47.9981 37.5019 47.9981C39.4744 47.9981 41.7375 53.115 43.5019 53.9981H56.0175C57.6094 53.9981 59.1338 54.63 60.2606 55.755L62.8275 58.3219C63.8998 59.3946 64.5021 60.8494 64.5019 62.3662C64.5015 63.5156 64.274 64.6536 63.8326 65.7148C63.3911 66.776 62.7443 67.7395 61.9294 68.55V68.55ZM78.1875 51.4219C77.1019 51.15 76.155 50.4844 75.5344 49.5525L72.1631 44.4956C71.6698 43.7568 71.4066 42.8884 71.4066 42C71.4066 41.1116 71.6698 40.2432 72.1631 39.5044L75.8362 33.9956C76.2712 33.345 76.8675 32.8163 77.5688 32.4675L80.0025 31.2506C82.5375 36.2981 84 41.9756 84 48C84 49.6256 83.8612 51.2175 83.6587 52.7888L78.1875 51.4219Z" fill="black"/>
</svg>
