<svg width="48" height="40" viewBox="0 0 48 40" fill="none" xmlns="http://www.w3.org/2000/svg">
<path d="M46.8 27.5H45.6V19.0547C45.6 18.0625 45.2175 17.1094 44.5425 16.4062L37.05 8.60156C36.375 7.89844 35.46 7.5 34.5075 7.5H31.2V3.75C31.2 1.67969 29.5875 0 27.6 0H3.6C1.6125 0 0 1.67969 0 3.75V28.75C0 30.8203 1.6125 32.5 3.6 32.5H4.8C4.8 36.6406 8.025 40 12 40C15.975 40 19.2 36.6406 19.2 32.5H28.8C28.8 36.6406 32.025 40 36 40C39.975 40 43.2 36.6406 43.2 32.5H46.8C47.46 32.5 48 31.9375 48 31.25V28.75C48 28.0625 47.46 27.5 46.8 27.5ZM12 36.25C10.0125 36.25 8.4 34.5703 8.4 32.5C8.4 30.4297 10.0125 28.75 12 28.75C13.9875 28.75 15.6 30.4297 15.6 32.5C15.6 34.5703 13.9875 36.25 12 36.25ZM36 36.25C34.0125 36.25 32.4 34.5703 32.4 32.5C32.4 30.4297 34.0125 28.75 36 28.75C37.9875 28.75 39.6 30.4297 39.6 32.5C39.6 34.5703 37.9875 36.25 36 36.25ZM42 20H31.2V11.25H34.5075L42 19.0547V20Z" fill="#0E0B16" fill-opacity="0.8"/>
</svg>
