<svg width="48" height="40" viewBox="0 0 48 40" fill="none" xmlns="http://www.w3.org/2000/svg">
<path d="M43.7344 6.53907L25.7344 0.289067C25.1861 0.0995198 24.5983 0.00195313 24.0047 0.00195312C23.4111 0.00195313 22.8233 0.0995198 22.275 0.289067L4.275 6.53907C2.59687 7.11719 1.5 8.48438 1.5 10C1.5 25.5078 12.2344 36.2266 22.2656 39.7109C23.3719 40.0938 24.6187 40.0938 25.725 39.7109C33.7594 36.9219 46.5 27.2891 46.5 10C46.5 8.48438 45.4031 7.11719 43.7344 6.53907ZM24.0094 34.8672L24 5.10157L40.4906 10.8281C40.1812 22.6563 32.7938 31.2266 24.0094 34.8672Z" fill="#0E0B16" fill-opacity="0.8"/>
</svg>
