<svg width="60" height="60" viewBox="0 0 60 60" fill="none" xmlns="http://www.w3.org/2000/svg">
<path d="M55.0125 35.3108L59.9368 10.9358C60.2923 9.1759 59.1032 7.5 57.499 7.5H16.5842L15.6294 2.24883C15.3915 0.939961 14.3677 0 13.1801 0H2.5C1.11927 0 0 1.25918 0 2.8125V4.6875C0 6.24082 1.11927 7.5 2.5 7.5H9.77948L17.097 47.7463C15.3464 48.8789 14.1667 51.0026 14.1667 53.4375C14.1667 57.0619 16.7783 60 20 60C23.2217 60 25.8333 57.0619 25.8333 53.4375C25.8333 51.6007 25.1618 49.9412 24.0808 48.75H45.9191C44.8382 49.9412 44.1667 51.6007 44.1667 53.4375C44.1667 57.0619 46.7783 60 50 60C53.2217 60 55.8333 57.0619 55.8333 53.4375C55.8333 50.8392 54.4908 48.5939 52.5439 47.5307L53.1185 44.6858C53.4741 42.9259 52.285 41.25 50.6807 41.25H22.7205L22.0388 37.5H52.5747C53.742 37.5 54.7539 36.5913 55.0125 35.3108Z" fill="#D7E1F7"/>
</svg>
