<svg width="60" height="60" viewBox="0 0 60 60" fill="none" xmlns="http://www.w3.org/2000/svg">
<g clip-path="url(#clip0_244_2)">
<path d="M59.1797 51.8789L47.4961 40.1953C46.9687 39.668 46.2539 39.375 45.5039 39.375H43.5938C46.8281 35.2383 48.75 30.0352 48.75 24.375C48.75 10.9102 37.8398 0 24.375 0C10.9102 0 0 10.9102 0 24.375C0 37.8398 10.9102 48.75 24.375 48.75C30.0352 48.75 35.2383 46.8281 39.375 43.5938V45.5039C39.375 46.2539 39.668 46.9687 40.1953 47.4961L51.8789 59.1797C52.9805 60.2812 54.7617 60.2812 55.8516 59.1797L59.168 55.8633C60.2695 54.7617 60.2695 52.9805 59.1797 51.8789ZM24.375 39.375C16.0898 39.375 9.375 32.6719 9.375 24.375C9.375 16.0898 16.0781 9.375 24.375 9.375C32.6602 9.375 39.375 16.0781 39.375 24.375C39.375 32.6602 32.6719 39.375 24.375 39.375Z" fill="#D7E1F7"/>
</g>
<defs>
<clipPath id="clip0_244_2">
<rect width="60" height="60" fill="white"/>
</clipPath>
</defs>
</svg>
