<svg width="60" height="60" viewBox="0 0 60 60" fill="none" xmlns="http://www.w3.org/2000/svg">
<path d="M42 35.625C38.1562 35.625 36.308 37.5 30 37.5C23.692 37.5 21.8571 35.625 18 35.625C8.0625 35.625 0 42.6797 0 51.375V54.375C0 57.4805 2.87946 60 6.42857 60H53.5714C57.1205 60 60 57.4805 60 54.375V51.375C60 42.6797 51.9375 35.625 42 35.625ZM53.5714 54.375H6.42857V51.375C6.42857 45.7969 11.625 41.25 18 41.25C19.9554 41.25 23.1295 43.125 30 43.125C36.9241 43.125 40.0312 41.25 42 41.25C48.375 41.25 53.5714 45.7969 53.5714 51.375V54.375ZM30 33.75C40.6473 33.75 49.2857 26.1914 49.2857 16.875C49.2857 7.55859 40.6473 0 30 0C19.3527 0 10.7143 7.55859 10.7143 16.875C10.7143 26.1914 19.3527 33.75 30 33.75ZM30 5.625C37.0848 5.625 42.8571 10.6758 42.8571 16.875C42.8571 23.0742 37.0848 28.125 30 28.125C22.9152 28.125 17.1429 23.0742 17.1429 16.875C17.1429 10.6758 22.9152 5.625 30 5.625Z" fill="#D7E1F7"/>
</svg>
